<svg xmlns="http://www.w3.org/2000/svg" viewBox="0 0 1100 580" width="1100" height="580" font-family="Inter,Segoe UI,Arial,sans-serif">
<defs>
  <linearGradient id="bg" x1="0" y1="0" x2="0" y2="1">
    <stop offset="0" stop-color="#faf9f6"/>
    <stop offset="1" stop-color="#eef1ea"/>
  </linearGradient>
</defs><rect width="1100" height="580" fill="url(#bg)"/><rect width="1100" height="56" fill="#ffffff" stroke="#e4e1d8" stroke-width="0 0 1 0"/><text x="24" y="34" font-size="18" font-weight="700" fill="#21241f">VedaX KM Agent</text><text x="850" y="34" font-size="13" fill="#6b6f64">bob@xyz.in</text><rect x="970" y="18" width="86" height="20" rx="10" fill="#1e5a96"/><text x="1013" y="32" font-size="10" font-weight="700" fill="#fff" text-anchor="middle" letter-spacing="1.2">ADMIN</text><rect x="0" y="56" width="1100" height="42" fill="#ffffff" stroke="#e4e1d8" stroke-width="0 0 1 0"/><text x="24" y="84" font-size="14" fill="#21241f" font-weight="600">Ask</text><rect x="12" y="96" width="38" height="2" fill="#4a5d4e"/><text x="74" y="84" font-size="14" fill="#6b6f64" font-weight="400">Documents</text><text x="172" y="84" font-size="14" fill="#6b6f64" font-weight="400">Audit &amp; Trends</text><rect x="24" y="122" width="1052" height="100" rx="10" fill="#ffffff" stroke="#e4e1d8"/><text x="42" y="146" font-size="11" fill="#6b6f64" font-weight="700" letter-spacing="1.2">UPLOAD SOP DOCUMENT</text><text x="42" y="172" font-size="13" fill="#21241f">[ choose file… ]      [ category ]      [ tags ]      [Upload]</text><rect x="24" y="240" width="1052" height="250" rx="10" fill="#ffffff" stroke="#e4e1d8"/><text x="42" y="264" font-size="11" fill="#6b6f64" font-weight="700" letter-spacing="1.2">INDEXED DOCUMENTS</text><text x="42" y="290" font-size="13" fill="#21241f">✓  hr_policy.pdf           HR  v1.0      auto-fetched     [Delete]</text><text x="42" y="312" font-size="13" fill="#21241f">✓  retail_direct.pdf       Compliance  v1.0   [Delete]</text><text x="42" y="334" font-size="13" fill="#21241f">✓  finance_sop.txt         Finance  v1.0      [Delete]</text><text x="42" y="356" font-size="13" fill="#21241f"></text><text x="42" y="378" font-size="13" fill="#21241f">[ Rescan ./sop_docs folder ]</text></svg>